<?xml version="1.0" standalone="no"?>
<svg viewBox="0 0 200 200" xmlns="http://www.w3.org/2000/svg">
  <path fill="#2E2E4F" d="M25.3,-43.5C30.9,-40.5,32.4,-30,36.4,-21.5C40.3,-13.1,46.7,-6.5,51.2,2.6C55.6,11.6,58,23.3,54,31.7C50.1,40.2,39.7,45.4,29.6,46.8C19.5,48.1,9.8,45.5,-1.8,48.7C-13.4,51.8,-26.7,60.6,-33.8,57.5C-40.8,54.4,-41.5,39.4,-47.9,27.8C-54.2,16.2,-66.2,8.1,-71.8,-3.2C-77.4,-14.6,-76.6,-29.2,-71.2,-42.4C-65.8,-55.6,-55.8,-67.5,-43.2,-66.4C-30.5,-65.4,-15.3,-51.6,-2.7,-46.8C9.8,-42.1,19.6,-46.5,25.3,-43.5Z" transform="translate(100 100)" />
</svg>
