<?xml version="1.0" standalone="no"?>
<svg viewBox="0 0 200 200" xmlns="http://www.w3.org/2000/svg">
  <path fill="#DD7878" d="M21.6,-30.9C34.9,-29.8,57.2,-37.8,69.5,-34.2C81.8,-30.6,84.1,-15.3,72.9,-6.5C61.7,2.4,37,4.7,29.5,16.6C21.9,28.5,31.5,49.9,29.5,60.9C27.4,71.9,13.7,72.6,1.6,69.8C-10.5,67.1,-21,60.9,-25.8,51.4C-30.5,41.9,-29.5,29.2,-35.4,20C-41.3,10.9,-54.2,5.5,-53.1,0.7C-51.9,-4.1,-36.7,-8.2,-33.7,-22.4C-30.6,-36.6,-39.9,-60.8,-36.3,-67.5C-32.7,-74.1,-16.4,-63.1,-6.1,-52.6C4.2,-42.1,8.4,-31.9,21.6,-30.9Z" transform="translate(100 100)" />
</svg>
