<?xml version="1.0" standalone="no"?>
<svg viewBox="0 0 200 200" xmlns="http://www.w3.org/2000/svg">
  <path fill="#8975EF" d="M20.3,-31.5C33,-27.8,54.7,-35.9,59.8,-32.7C64.9,-29.4,53.4,-14.7,48.2,-3C43,8.7,44,17.4,41.8,25.6C39.6,33.8,34,41.6,26.5,53.2C19,64.9,9.5,80.3,-1.5,83C-12.6,85.7,-25.2,75.5,-29.9,62.3C-34.6,49,-31.4,32.7,-41.7,21.8C-52,10.9,-75.7,5.4,-80.9,-3C-86.1,-11.4,-72.8,-22.9,-62.3,-33.4C-51.7,-43.9,-44.1,-53.5,-34.2,-58.8C-24.3,-64.2,-12.1,-65.3,-4.2,-58.1C3.8,-50.8,7.5,-35.2,20.3,-31.5Z" transform="translate(100 100)" />
</svg>
