<svg id="visual" viewBox="0 0 900 600" width="900" height="600" xmlns="http://www.w3.org/2000/svg" xmlns:xlink="http://www.w3.org/1999/xlink" version="1.1"><path d="M551 600L581 514L666 429L551 343L627 257L668 171L611 86L580 0L900 0L900 86L900 171L900 257L900 343L900 429L900 514L900 600Z" fill="#691ed2"></path><path d="M654 600L617 514L686 429L691 343L702 257L716 171L610 86L635 0L900 0L900 86L900 171L900 257L900 343L900 429L900 514L900 600Z" fill="#502db4"></path><path d="M706 600L675 514L760 429L674 343L713 257L692 171L756 86L669 0L900 0L900 86L900 171L900 257L900 343L900 429L900 514L900 600Z" fill="#3e3293"></path><path d="M775 600L761 514L796 429L766 343L743 257L801 171L741 86L753 0L900 0L900 86L900 171L900 257L900 343L900 429L900 514L900 600Z" fill="#343171"></path><path d="M852 600L791 514L823 429L812 343L803 257L825 171L811 86L863 0L900 0L900 86L900 171L900 257L900 343L900 429L900 514L900 600Z" fill="#2e2e4f"></path></svg>