<svg id="visual" viewBox="0 0 900 600" width="900" height="600" xmlns="http://www.w3.org/2000/svg" xmlns:xlink="http://www.w3.org/1999/xlink" version="1.1"><path d="M210 600L253 525L365 450L273 375L298 300L263 225L362 150L212 75L397 0L900 0L900 75L900 150L900 225L900 300L900 375L900 450L900 525L900 600Z" fill="#691ed2"></path><path d="M375 600L326 525L433 450L501 375L437 300L379 225L401 150L287 75L421 0L900 0L900 75L900 150L900 225L900 300L900 375L900 450L900 525L900 600Z" fill="#502db4"></path><path d="M492 600L556 525L604 450L429 375L516 300L546 225L582 150L538 75L613 0L900 0L900 75L900 150L900 225L900 300L900 375L900 450L900 525L900 600Z" fill="#3e3293"></path><path d="M549 600L582 525L707 450L731 375L564 300L594 225L585 150L638 75L698 0L900 0L900 75L900 150L900 225L900 300L900 375L900 450L900 525L900 600Z" fill="#343171"></path><path d="M690 600L735 525L782 450L797 375L810 300L725 225L725 150L726 75L735 0L900 0L900 75L900 150L900 225L900 300L900 375L900 450L900 525L900 600Z" fill="#2e2e4f"></path></svg>